<svg enable-background="new 0 0 431.972 431.972" height="431.972" viewBox="0 0 431.972 431.972" width="431.972" xmlns="http://www.w3.org/2000/svg"><path d="m393.146 14.279c-3.713-5.333-8.713-9.233-14.989-11.707-3.997-1.711-8.186-2.568-12.565-2.568v-.004h-299.214c-4.377 0-8.562.857-12.56 2.568-6.28 2.472-11.278 6.377-14.989 11.707-3.71 5.33-5.568 11.228-5.568 17.701v368.019c0 6.475 1.858 12.371 5.568 17.706 3.711 5.329 8.709 9.233 14.989 11.704 3.994 1.711 8.183 2.566 12.56 2.566 8.949 0 16.844-3.142 23.698-9.418l125.91-121.062 125.91 121.065c6.663 6.081 14.562 9.127 23.695 9.127 4.76 0 8.948-.756 12.565-2.279 6.276-2.471 11.276-6.375 14.989-11.711 3.71-5.328 5.564-11.225 5.564-17.699v-368.014c.001-6.473-1.857-12.371-5.563-17.701z"/></svg>