<svg viewBox="0 0 346.22 405.97" xmlns="http://www.w3.org/2000/svg"><path d="m375.1 34.82a28.84 28.84 0 0 0 -13.46-10.51 28.33 28.33 0 0 0 -11.29-2.31h-268.73a28.32 28.32 0 0 0 -11.28 2.31 28.92 28.92 0 0 0 -13.47 10.51 27.24 27.24 0 0 0 -5 15.9v330.53a27.22 27.22 0 0 0 5 15.9 28.94 28.94 0 0 0 13.47 10.52 28.45 28.45 0 0 0 11.28 2.33 30.56 30.56 0 0 0 21.28-8.46l113.1-108.76 113.07 108.74a30.53 30.53 0 0 0 21.28 8.19 29.79 29.79 0 0 0 24.75-12.56 27.22 27.22 0 0 0 5-15.9v-330.53a27.24 27.24 0 0 0 -5-15.9z" fill="none" stroke="#000" stroke-miterlimit="10" stroke-width="18" transform="translate(-42.87 -13)"/></svg>