<svg viewBox="0 0 401.99 328.89" xmlns="http://www.w3.org/2000/svg"><path d="m430 164.17q-26.84-33.69-73.23-53.25t-100.96-19.55q-54.52 0-100.92 19.55t-73.23 53.25q-26.83 33.71-26.84 73.38 0 34 20.28 64t55.67 50.45q-2.85 6.85-5.85 12.57a73.13 73.13 0 0 1 -7.14 11q-4.14 5.28-6.43 8.27a110.61 110.61 0 0 1 -7.42 8.43q-5.15 5.42-6.57 7.13 0-.29-1.14 1.29c-.76 1-1.19 1.52-1.29 1.43s-.47.37-1.14 1.42-1 1.57-1 1.57l-.71 1.42a5.83 5.83 0 0 0 -.57 1.71 10.78 10.78 0 0 0 -.15 1.86 5.83 5.83 0 0 0 .29 1.85 9.5 9.5 0 0 0 3.28 6 8.94 8.94 0 0 0 5.86 2.28h.85a240.59 240.59 0 0 0 24.56-4.57 240.05 240.05 0 0 0 79.37-36.55 286.34 286.34 0 0 0 50.24 4.57q54.54 0 100.93-19.54t73.26-53.22q26.82-33.69 26.83-73.37t-26.83-73.38zm-261.69 97.83a29.5 29.5 0 1 1 29.5-29.5 29.5 29.5 0 0 1 -29.5 29.5zm87.5 0a29.5 29.5 0 1 1 29.5-29.5 29.5 29.5 0 0 1 -29.5 29.5zm87.5 0a29.5 29.5 0 1 1 29.5-29.5 29.5 29.5 0 0 1 -29.5 29.5z" transform="translate(-54.82 -91.37)"/></svg>