<svg enable-background="new 0 0 418 344.9" viewBox="0 0 418 344.9" xmlns="http://www.w3.org/2000/svg"><path d="m373.6 85.8c-16.9-21.2-40-38-69.2-50.3s-61-18.5-95.4-18.5-66.2 6.2-95.4 18.5-52.3 29.1-69.2 50.3c-16.9 21.3-25.4 44.4-25.4 69.4 0 21.4 6.4 41.6 19.2 60.5s30.3 34.8 52.6 47.7c-1.8 4.3-3.6 8.3-5.5 11.9-1.9 3.7-4.2 7.1-6.7 10.4-2.6 3.3-4.6 5.9-6.1 7.8-2.2 2.8-4.5 5.4-7 8-3.2 3.4-5.3 5.7-6.2 6.7 0-.2-.4.2-1.1 1.2-.7.9-1.1 1.4-1.2 1.4-.1-.1-.4.3-1.1 1.3-.6 1-.9 1.5-.9 1.5l-.7 1.3c-.3.5-.4 1.1-.5 1.6-.1.6-.1 1.2-.1 1.8s.1 1.2.3 1.7c.3 2.2 1.4 4.2 3.1 5.7 1.5 1.4 3.5 2.1 5.5 2.2h.8c7.8-1 15.6-2.5 23.2-4.3 26.9-6.8 52.3-18.5 75-34.5 15.7 2.8 31.6 4.3 47.5 4.3 34.4 0 66.2-6.2 95.4-18.5s52.3-29.1 69.3-50.3c16.9-21.2 25.4-44.3 25.4-69.4-.2-25-8.6-48.1-25.6-69.4zm-247.3 92.5c-15.4 0-27.9-12.5-27.9-27.9s12.5-27.9 27.9-27.9 27.9 12.5 27.9 27.9c0 15.4-12.5 27.9-27.9 27.9zm82.7 0c-15.4 0-27.9-12.5-27.9-27.9s12.5-27.9 27.9-27.9 27.9 12.5 27.9 27.9c0 15.4-12.5 27.9-27.9 27.9zm82.7 0c-15.4 0-27.9-12.5-27.9-27.9s12.5-27.9 27.9-27.9 27.9 12.5 27.9 27.9c0 15.4-12.5 27.9-27.9 27.9z" fill="none" stroke="#000" stroke-miterlimit="10" stroke-width="19"/></svg>