<svg viewBox="0 0 413.14 413.14" xmlns="http://www.w3.org/2000/svg"><path d="m270.34 0h-127.54c-78.74 0-142.8 64.06-142.8 142.8v127.54c0 78.74 64.06 142.8 142.8 142.8h127.54c78.74 0 142.8-64.06 142.8-142.8v-127.54c0-78.74-64.06-142.8-142.8-142.8zm-185.34 309.18c-8.88-54.63 14.34-117.3 60.6-163.56 39.73-39.73 91.57-62.47 140-62.47a147.2 147.2 0 0 1 23.58 1.85 22.89 22.89 0 0 1 18.94 19c8.88 54.63-14.34 117.3-60.6 163.56s-108.93 69.44-163.52 60.56a22.89 22.89 0 0 1 -19-18.94z"/><circle cx="206.57" cy="206.57" r="28.87"/></svg>