<svg viewBox="0 0 486.37 419.46" xmlns="http://www.w3.org/2000/svg"><path d="m456.81 87.49q-33.21-32.41-91.75-32.41a104.36 104.36 0 0 0 -33.06 5.62 133.71 133.71 0 0 0 -31.36 15.16q-14.52 9.54-25 17.9a243.27 243.27 0 0 0 -19.86 17.78 241.62 241.62 0 0 0 -19.78-17.78q-10.45-8.36-25-17.9a134 134 0 0 0 -31.38-15.16 104.36 104.36 0 0 0 -33.06-5.62q-58.56 0-91.74 32.41t-33.19 89.91a114.59 114.59 0 0 0 6.14 36.07 158.47 158.47 0 0 0 14 31.63 231 231 0 0 0 17.78 25.48q9.91 12.42 14.45 17.12a86.87 86.87 0 0 0 7.19 6.79l163.12 157.35a16.39 16.39 0 0 0 23 0l162.84-156.84q59.85-59.83 59.85-117.6 0-57.5-33.19-89.91z" fill="none" stroke="#000" stroke-miterlimit="10" stroke-width="18" transform="translate(-12.63 -46.08)"/></svg>