<svg viewBox="0 0 418.33 428.83" xmlns="http://www.w3.org/2000/svg"><path d="m209.16 200.22a53 53 0 1 0 53 53 53.06 53.06 0 0 0 -53-53z"/><path d="m398.14 136.1-173.84-122.31a26.31 26.31 0 0 0 -30.28 0l-173.83 122.31c-19.11 13.44-12.52 43.26 10.47 47.41l5.74 1a144.82 144.82 0 0 0 -2.15 24.89v66.83a143.56 143.56 0 0 0 143.56 143.6h62.7a143.57 143.57 0 0 0 143.57-143.57v-66.83a144.82 144.82 0 0 0 -2.15-24.89l5.73-1c23-4.18 29.58-34 10.48-47.44zm-189 188.12a71 71 0 1 1 71-71 71.08 71.08 0 0 1 -70.98 71z" fill="none" stroke="#000" stroke-miterlimit="10" stroke-width="18"/></svg>