<svg viewBox="0 0 482 325" xmlns="http://www.w3.org/2000/svg"><g fill="none" stroke="#000" stroke-miterlimit="10" stroke-width="18"><path d="m168.86 177.69-135.75-135.75a96.58 96.58 0 0 0 -24.11 63.97v113.18a96.91 96.91 0 0 0 96.91 96.91h270.18a96.91 96.91 0 0 0 96.91-96.91v-113.18a96.58 96.58 0 0 0 -27.59-67.72l-139.5 139.5a96.92 96.92 0 0 1 -137.05 0z"/><path d="m376.09 9h-270.18a96.7 96.7 0 0 0 -72.8 32.94l135.75 135.75a96.92 96.92 0 0 0 137.05 0l139.5-139.5a96.62 96.62 0 0 0 -69.32-29.19z"/></g></svg>