<svg viewBox="0 0 464 307" xmlns="http://www.w3.org/2000/svg"><path d="m228.38 206.07a105.18 105.18 0 0 1 -74.88-31l-135.04-135.07a96.47 96.47 0 0 0 -18.46 56.91v113.18a96.91 96.91 0 0 0 96.91 96.91h270.18a96.91 96.91 0 0 0 96.91-96.91v-113.18a96.55 96.55 0 0 0 -21.6-61l-139.13 139.14a105.18 105.18 0 0 1 -74.89 31.02z"/><path d="m228.38 188.07a87.32 87.32 0 0 0 62.16-25.74l139.28-139.28a96.51 96.51 0 0 0 -62.73-23.05h-270.18a96.6 96.6 0 0 0 -66.55 26.46l135.87 135.87a87.31 87.31 0 0 0 62.15 25.74z"/></svg>