<svg viewBox="0 0 157.5 180.09" xmlns="http://www.w3.org/2000/svg"><path d="m78.74 180.09a27.35 27.35 0 0 1 -26.77-22 8.76 8.76 0 1 1 17.18-3.43 9.79 9.79 0 0 0 19.19 0 8.76 8.76 0 1 1 17.18 3.43 27.36 27.36 0 0 1 -26.78 22z"/><path d="m125.3 147h-93.62a31.64 31.64 0 0 1 -10.68-61.46 3.74 3.74 0 0 0 2.23-3.54v-19.1h.06v-2.79a56.29 56.29 0 0 1 112.58 0v22.56a3.89 3.89 0 0 0 2.44 3.5 31.68 31.68 0 0 1 -13 60.8zm-84.58-75.34v10.34a21.26 21.26 0 0 1 -13.84 20 14.13 14.13 0 0 0 4.76 27.44h93.66c7.44 0 13.85-5.53 14.59-12.59a14.16 14.16 0 0 0 -8.49-14.59 21.38 21.38 0 0 1 -13.05-19.6v-22.55a38.77 38.77 0 0 0 -77.54 0v3.13s0 2.15 0 4.27v2.92c-.04.43-.05.84-.09 1.23z"/><circle cx="113.95" cy="21.93" fill="#95d2b6" r="21.93"/></svg>