<svg viewBox="0 0 349.83 351.47" xmlns="http://www.w3.org/2000/svg"><path d="m209.09 221.87a66.79 66.79 0 1 0 -19.33 7.75 66.6 66.6 0 0 0 19.33-7.75z" fill="none"/><path d="m174.92 231.3a139.69 139.69 0 0 0 -100.14 42.12 134.45 134.45 0 0 0 -21.9 33.08 137.66 137.66 0 0 0 90.69 34h62.69a137.71 137.71 0 0 0 90.7-34 134.58 134.58 0 0 0 -21.91-33.08 139.68 139.68 0 0 0 -100.13-42.12z" fill="none"/><path d="m206.26 0h-62.69a143.57 143.57 0 0 0 -143.57 143.57v66.83a143.21 143.21 0 0 0 46.21 105.51c.07-.16-.06.15 0 0 27 23.26 61.54 35.56 97.36 35.56h62.69a148.56 148.56 0 0 0 97.15-36c.07.16-.07-.15 0 0 28.41-26.23 46.42-63.32 46.42-105v-66.9a143.57 143.57 0 0 0 -143.57-143.57zm0 340.47h-62.69a137.66 137.66 0 0 1 -90.69-34 134.45 134.45 0 0 1 21.9-33.08 139.69 139.69 0 0 1 100.14-42.09 67.1 67.1 0 0 1 -14.84-1.68 66.67 66.67 0 1 1 29.68 0 67.23 67.23 0 0 1 -14.84 1.68 139.68 139.68 0 0 1 100.13 42.12 134.58 134.58 0 0 1 21.95 33.08 137.71 137.71 0 0 1 -90.74 33.97z"/></svg>