<svg viewBox="0 0 160.66 160.38" xmlns="http://www.w3.org/2000/svg"><path d="m158 145-25.61-25.61a52.15 52.15 0 0 0 9.44-30v-37a52.48 52.48 0 0 0 -52.39-52.39h-37a52.49 52.49 0 0 0 -52.44 52.43v37a52.48 52.48 0 0 0 52.43 52.42h37a52.13 52.13 0 0 0 30.3-9.68l25.56 25.56a9 9 0 0 0 12.71-12.73zm-105.57-21.14a34.46 34.46 0 0 1 -34.43-34.42v-37a34.46 34.46 0 0 1 34.43-34.44h37a34.46 34.46 0 0 1 34.42 34.43v37a34.46 34.46 0 0 1 -34.42 34.42z" fill="#231f20"/><circle cx="48.94" cy="43.85" fill="#95d2b6" r="11.3"/></svg>